<svg width="20" height="20" viewBox="0 0 20 20" fill="none" xmlns="http://www.w3.org/2000/svg">
<g clip-path="url(#clip0_258_1684)">
<path d="M15.7146 7.85742H4.28599C3.49702 7.85742 2.85742 8.49702 2.85742 9.28599V17.8574C2.85742 18.6464 3.49702 19.286 4.28599 19.286H15.7146C16.5035 19.286 17.1431 18.6464 17.1431 17.8574V9.28599C17.1431 8.49702 16.5035 7.85742 15.7146 7.85742Z" stroke="#929292" stroke-width="1.5" stroke-linecap="round" stroke-linejoin="round"/>
<path d="M15 7.85721V5.71436C15 4.38827 14.4732 3.1165 13.5355 2.17882C12.5979 1.24114 11.3261 0.714355 10 0.714355C8.67392 0.714355 7.40215 1.24114 6.46447 2.17882C5.52678 3.1165 5 4.38827 5 5.71436V7.85721" stroke="#929292" stroke-width="1.5" stroke-linecap="round" stroke-linejoin="round"/>
<path d="M9.99944 14.286C10.3939 14.286 10.7137 13.9662 10.7137 13.5717C10.7137 13.1772 10.3939 12.8574 9.99944 12.8574C9.60495 12.8574 9.28516 13.1772 9.28516 13.5717C9.28516 13.9662 9.60495 14.286 9.99944 14.286Z" stroke="#929292" stroke-width="1.5" stroke-linecap="round" stroke-linejoin="round"/>
</g>
<defs>
<clipPath id="clip0_258_1684">
<rect width="20" height="20" fill="white"/>
</clipPath>
</defs>
</svg>
