<svg width="22" height="22" viewBox="0 0 22 22" fill="none" xmlns="http://www.w3.org/2000/svg">
<path d="M20.7895 9.94721C21.0502 10.236 21.1944 10.6111 21.1944 11.0001C21.1944 11.389 21.0502 11.7642 20.7895 12.0529C19.1395 13.8286 15.3838 17.2858 10.9995 17.2858C6.61526 17.2858 2.85955 13.8286 1.20955 12.0529C0.948943 11.7642 0.804687 11.389 0.804688 11.0001C0.804687 10.6111 0.948943 10.236 1.20955 9.94721C2.85955 8.1715 6.61526 4.71436 10.9995 4.71436C15.3838 4.71436 19.1395 8.1715 20.7895 9.94721Z" stroke="#929292" stroke-width="1.5" stroke-linecap="round" stroke-linejoin="round"/>
<path d="M11.0003 14.1431C12.736 14.1431 14.1431 12.736 14.1431 11.0003C14.1431 9.26453 12.736 7.85742 11.0003 7.85742C9.26453 7.85742 7.85742 9.26453 7.85742 11.0003C7.85742 12.736 9.26453 14.1431 11.0003 14.1431Z" stroke="#929292" stroke-width="1.5" stroke-linecap="round" stroke-linejoin="round"/>
</svg>
